<?xml version="1.0" standalone="no"?>
<!DOCTYPE svg PUBLIC "-//W3C//DTD SVG 20010904//EN"
 "http://www.w3.org/TR/2001/REC-SVG-20010904/DTD/svg10.dtd">
<svg version="1.0" xmlns="http://www.w3.org/2000/svg"
 width="277.000000pt" height="277.000000pt" viewBox="0 0 277.000000 277.000000"
 preserveAspectRatio="xMidYMid meet">
<metadata>
Created by potrace 1.11, written by Peter Selinger 2001-2013
</metadata>
<g transform="translate(0.000000,277.000000) scale(0.100000,-0.100000)"
fill="#000000" stroke="none">
<path d="M1180 2137 c-19 -7 -37 -13 -40 -13 -16 -1 -100 -62 -130 -94 -52
-56 -81 -116 -94 -199 -11 -73 -12 -75 -42 -77 -53 -4 -131 -44 -171 -87 -60
-65 -78 -110 -78 -197 0 -117 53 -203 160 -258 47 -24 61 -26 205 -28 l155 -3
23 32 22 32 -70 3 -69 3 27 37 c15 21 72 95 126 165 l99 127 95 0 95 0 -126
-125 c-70 -69 -127 -126 -127 -128 0 -1 38 -1 85 0 l85 2 -16 -25 c-9 -13 -19
-24 -23 -24 -3 0 -30 -23 -59 -50 l-53 -49 69 0 c40 0 76 5 84 12 8 7 36 40
62 74 l48 61 89 0 c49 -1 89 -4 89 -7 0 -3 -30 -36 -67 -73 l-67 -67 115 0
c182 1 265 27 344 105 111 112 140 267 74 410 -28 63 -107 140 -177 172 -45
21 -72 26 -132 27 -41 0 -89 -3 -106 -7 -29 -7 -31 -5 -58 52 -33 69 -103 139
-178 177 -43 22 -69 28 -143 30 -57 2 -103 -2 -125 -10z"/>
<path d="M1136 1155 c-9 -14 -13 -25 -9 -25 5 0 3 -4 -4 -8 -12 -8 -93 -128
-93 -138 0 -3 11 5 23 18 35 34 161 147 183 163 17 13 14 14 -32 15 -44 0 -54
-4 -68 -25z"/>
<path d="M1384 1143 c-16 -21 -48 -61 -71 -90 l-43 -52 74 -3 73 -3 -74 -115
c-101 -158 -103 -161 -47 -110 27 24 67 60 88 80 22 19 52 46 67 60 15 14 42
39 61 55 18 17 53 47 76 68 l42 37 -92 0 -93 1 25 23 c14 12 38 37 54 54 l30
32 -70 0 c-69 0 -71 -1 -100 -37z"/>
</g>
</svg>
